<svg data-v-423bf9ae="" xmlns="http://www.w3.org/2000/svg" viewBox="0 0 60.000727344429045 60" class="icon"><!----><!----><!----><!----><g data-v-423bf9ae="" id="85aace11-bd6b-41eb-a3d9-1ceba7497e3e" transform="matrix(0.6666747482714338,0,0,0.6666747482714338,-3.3333731099828228,-3.334102516309244)" stroke="none" fill="white"><path d="M64.267 54.656v-5.508l22.845-8.307C91.979 39.393 95 34.387 95 27.761c0-2.674-.48-5.404-1.429-8.115C91.244 13 86.517 7.676 81.232 5.751c-2.361-.855-4.738-.982-6.877-.365l-.05.014-30.95 11.254v.001c-3.533 1.071-6.086 4.021-7.208 8.104l-14.425 5.242v.001c-3.249.998-5.37 4.11-5.732 8.287l-7.011 2.547v.001c-2.276.717-3.687 3.002-3.687 5.996 0 4.103 2.639 8.275 6.011 9.503a5.68 5.68 0 0 0 1.924.351c.461 0 .914-.062 1.362-.192.139-.041.288-.096.446-.159l7.576-2.755c1.016.79 2.109 1.42 3.255 1.837 1.019.368 2.036.556 3.023.556.714 0 1.414-.099 2.066-.289.24-.067.489-.158.755-.27l14.448-5.253a15.695 15.695 0 0 0 3.117 1.567c1.379.5 2.756.753 4.093.753h.001c.311 0 .617-.019.922-.046v5.846L5 76.201v8.91L32.057 95l62.942-22.882v-8.911l-27.075-9.88-3.657 1.329zM75.254 8.315c1.52-.427 3.179-.32 4.93.314 4.374 1.593 8.492 6.314 10.492 12.027l.006.018-28.028 10.19c-2.25-6.422-6.744-11.604-11.814-13.672l24.414-8.877zM13.918 53.484a1.809 1.809 0 0 1-.19.071 1.8 1.8 0 0 1-.498.067c-.276 0-.573-.057-.878-.167-2.163-.787-3.991-3.819-3.991-6.623 0-1.596.618-2.809 1.568-3.086.156-.045.322-.067.496-.067.275 0 .569.057.878.169 1.498.545 2.948 2.278 3.61 4.322.254.769.383 1.543.383 2.299-.001 1.494-.533 2.651-1.378 3.015zm6.68-7.331l-2.789 1.014c-.683-2.072-1.916-3.856-3.417-5.039l7.697-2.798c.396-.103.844-.065 1.329.11 1.499.547 2.949 2.282 3.61 4.32l.014.05-6.444 2.343zm9.977 6.418a3.836 3.836 0 0 1-.46.168c-.387.112-.798.17-1.222.17-.63 0-1.296-.126-1.977-.372a8.032 8.032 0 0 1-.661-.281l.493-.179c2.303-.701 3.731-3 3.731-6.013 0-1.071-.18-2.167-.535-3.251-.965-2.976-3.063-5.371-5.478-6.252-1.11-.402-2.241-.459-3.269-.164l-1.921.698c.514-2.161 1.719-3.693 3.399-4.185a4.35 4.35 0 0 1 1.215-.169 5.76 5.76 0 0 1 1.977.376c3.043 1.104 5.859 4.423 7.174 8.456.496 1.515.747 3.029.747 4.499 0 3.202-1.201 5.632-3.213 6.499zm5.365-11.996c-1.432-4.354-4.279-7.938-7.625-9.71l16.039-5.831c.963-.267 2.024-.194 3.151.214 3.044 1.11 5.859 4.431 7.174 8.459l.016.05-18.755 6.818zm14.388 8.275c-.088-.032-.176-.072-.264-.106l2.59-.941c3.602-1.08 5.836-4.751 5.836-9.595 0-1.794-.301-3.627-.896-5.449-1.619-4.965-5.082-8.944-9.041-10.388-1.746-.633-3.509-.725-5.099-.266l-3.499 1.271c.993-1.918 2.485-3.266 4.353-3.812a6.894 6.894 0 0 1 1.921-.267c.979 0 2.004.193 3.049.574 4.375 1.592 8.492 6.31 10.489 12.021.834 2.384 1.257 4.774 1.257 7.104 0 4.841-1.863 8.537-4.992 9.889-.254.111-.496.2-.727.266-1.515.438-3.227.333-4.977-.301zm10.871 1.413v16.749c-.23.169-.883.458-1.918.458s-1.688-.289-1.919-.458V51.658l3.837-1.395zM30.525 91.179L8.067 82.97v-3.505l22.458 8.209v3.505zm61.407-21.206l-58.34 21.21v-3.507l58.34-21.21v3.507zm-59.872 15l-21.054-7.695 43.289-15.736v5.684c0 1.917 2.098 3.308 4.986 3.308s4.985-1.391 4.985-3.308v-9.308l3.655-1.329 21.067 7.688L32.06 84.973z"></path></g><!----></svg>