<svg xmlns="http://www.w3.org/2000/svg" xmlns:xlink="http://www.w3.org/1999/xlink" viewBox="0 0 220 42.69"><defs><style>.cls-1{fill:#202a4f;}.cls-2{fill:url(#linear-gradient);}</style><linearGradient id="linear-gradient" x1="-827.97" y1="561.87" x2="-826.97" y2="561.87" gradientTransform="matrix(38.69, 18.04, 18.04, -38.69, 21891.97, 36682.59)" gradientUnits="userSpaceOnUse"><stop offset="0" stop-color="#395eca"/><stop offset="1" stop-color="#848bd8"/></linearGradient></defs><title>logo</title><g id="Layer_2" data-name="Layer 2"><g id="Layer_1-2" data-name="Layer 1"><g id="_409b0eea-ccbe-40c8-936f-b56bc29f936e" data-name="409b0eea-ccbe-40c8-936f-b56bc29f936e"><path class="cls-1" d="M65.59,35.57c6.52,0,10.17-3.47,10.17-8.49,0-4.48-2.59-6.88-7.93-7.74l-2.56-.4c-2.19-.35-3.12-1-3.12-2.8,0-1.58,1.25-2.54,3.79-2.54a6.75,6.75,0,0,1,5.6,2.46l3.77-3.82a11.66,11.66,0,0,0-9-3.66c-6.11,0-9.77,3.26-9.77,7.93,0,4.38,2.48,7,8,7.77l2.59.35c2.43.32,3,1.36,3,2.8,0,1.9-1.34,3.12-4.11,3.12a8.54,8.54,0,0,1-6.55-3l-3.73,3.79A12.69,12.69,0,0,0,65.59,35.57Zm22.51,0c3.84,0,6.64-1.68,8-5.42l-4.3-1.87c-.56,1.58-1.44,2.94-3.65,2.94s-3.39-1.6-3.39-4.06V23.51c0-2.49,1.14-4.09,3.39-4.09a3.26,3.26,0,0,1,3.36,2.7l4.48-1.95C94.8,17,92.05,15,88.1,15c-5.9,0-9.16,4-9.16,10.25S82.2,35.57,88.1,35.57ZM105,35.12V23.64c0-2.27,1.58-3,4.78-3h1.39V15.5h-1a4.92,4.92,0,0,0-5,4.27H105V15.5H99.5V35.12Zm12.33-21.71c2.25,0,3.23-1.17,3.23-2.75v-.8c0-1.57-1-2.75-3.23-2.75s-3.2,1.18-3.2,2.75v.8C114.15,12.24,115.11,13.41,117.35,13.41ZM114.6,35.12h5.53V15.5H114.6Zm16.21,0V22.41c0-1.95,1.76-2.88,3.55-2.88,2,0,2.72,1.23,2.72,3.74V35.12h5.56V22.81c0-4.91-2.14-7.77-6.14-7.77a5.34,5.34,0,0,0-5.45,3.79h-.24V15.5h-5.53V35.12Zm23.41.45c5.05,0,8.41-2.77,8.41-6.54,0-3.42-2.22-5.34-6.49-5.9L154,22.81c-1.6-.21-2-.77-2-1.81s.75-1.66,2.62-1.66a6.6,6.6,0,0,1,4.51,2l3.17-3.26c-2-1.95-3.87-3.07-8-3.07-4.67,0-7.63,2.62-7.63,6.41,0,3.55,2.16,5.47,6.62,6l2.13.27c1.36.19,2,.67,2,1.66,0,1.14-.75,1.86-2.91,1.86a6.86,6.86,0,0,1-5.21-2.51L146,32.05A10.26,10.26,0,0,0,154.22,35.57Zm12.17-.45h5.53V22.41c0-1.95,1.76-2.88,3.55-2.88,2,0,2.72,1.23,2.72,3.74V35.12h5.56V22.81c0-4.91-2.14-7.77-6.14-7.77a5.35,5.35,0,0,0-5.45,3.79h-.24V7.46h-5.53Zm30.25.45c5.74,0,9.18-4,9.18-10.28S202.38,15,196.64,15s-9.21,3.93-9.21,10.25S190.87,35.57,196.64,35.57Zm0-4.38c-2.19,0-3.44-1.41-3.44-3.89v-4c0-2.48,1.25-3.9,3.44-3.9s3.42,1.42,3.42,3.9v4C200.06,29.78,198.8,31.19,196.64,31.19Zm23,3.93v-4.3H216.1v-11H220V15.5h-3.9V10.18h-5v3.23c0,1.34-.46,2.09-1.95,2.09H207.8v4.29h2.78v9.62c0,3.73,2,5.71,5.82,5.71Z"/></g><g id="_7d99681c-3b0e-4b4e-8ea6-358044b247f0" data-name="7d99681c-3b0e-4b4e-8ea6-358044b247f0"><path class="cls-2" d="M28.11,23.55V20.94L39,17c2.3-.69,3.74-3.06,3.74-6.2A11.62,11.62,0,0,0,42,7,10.63,10.63,0,0,0,36.16.36,5.25,5.25,0,0,0,32.9.18h0L18.19,5.53h0a5.24,5.24,0,0,0-3.42,3.84L7.93,11.86h0a4.19,4.19,0,0,0-2.72,3.93L1.89,17h0A2.76,2.76,0,0,0,.14,19.84,4.94,4.94,0,0,0,3,24.35a2.57,2.57,0,0,0,.91.16,2,2,0,0,0,.65-.09l.21-.07L8.35,23a5.3,5.3,0,0,0,1.55.87,4.06,4.06,0,0,0,1.43.27,3.52,3.52,0,0,0,1-.14l.36-.13,6.85-2.49a7.31,7.31,0,0,0,1.48.74,5.63,5.63,0,0,0,1.94.36h0l.44,0v2.77L0,33.77V38l12.83,4.69L42.69,31.83V27.61L29.84,22.92Zm5.21-22a3.81,3.81,0,0,1,2.34.15c2.07.76,4,3,5,5.71h0L27.35,12.27a10.77,10.77,0,0,0-5.61-6.49ZM4.23,23l-.09,0a1,1,0,0,1-.24,0A1.24,1.24,0,0,1,3.49,23a3.51,3.51,0,0,1-1.9-3.14c0-.76.3-1.33.75-1.46a.85.85,0,0,1,.23,0,1.14,1.14,0,0,1,.42.09A3.22,3.22,0,0,1,4.7,20.48a3.46,3.46,0,0,1,.18,1.09A1.5,1.5,0,0,1,4.23,23ZM7.4,19.52,6.08,20a5.09,5.09,0,0,0-1.63-2.39l3.66-1.33a1.08,1.08,0,0,1,.63,0,3.3,3.3,0,0,1,1.71,2.05v0Zm4.73,3-.22.08a1.85,1.85,0,0,1-.58.08,3,3,0,0,1-.94-.17l-.31-.14.24-.08a2.75,2.75,0,0,0,1.76-2.85,5,5,0,0,0-.25-1.55,4.62,4.62,0,0,0-2.6-3,2.51,2.51,0,0,0-1.55-.08l-.91.33a2.51,2.51,0,0,1,1.61-2A1.89,1.89,0,0,1,9,13.16a2.53,2.53,0,0,1,.94.18,6.27,6.27,0,0,1,3.4,4,6.65,6.65,0,0,1,.35,2.13C13.65,21,13.08,22.15,12.13,22.56Zm2.54-5.69a8,8,0,0,0-3.61-4.6L18.67,9.5a2.5,2.5,0,0,1,1.49.1,6.32,6.32,0,0,1,3.4,4v0ZM21.5,20.8l-.13-.05,1.23-.45c1.71-.51,2.77-2.25,2.77-4.55A8.34,8.34,0,0,0,25,13.17a7.68,7.68,0,0,0-4.29-4.93,3.89,3.89,0,0,0-2.42-.13l-1.66.61a3.44,3.44,0,0,1,2.06-1.81,3.18,3.18,0,0,1,.91-.13A4.21,4.21,0,0,1,21,7.05c2.08.76,4,3,5,5.7a10.41,10.41,0,0,1,.59,3.37c0,2.3-.88,4.05-2.37,4.69a1.81,1.81,0,0,1-.34.13A3.79,3.79,0,0,1,21.5,20.8Zm5.16.67v7.94a1.65,1.65,0,0,1-.91.22,1.59,1.59,0,0,1-.91-.22V22.13ZM12.11,40.87,1.45,37V35.32l10.66,3.89Zm29.12-10L13.56,40.88V39.21L41.23,29.15Zm-28.4,7.11-10-3.65,20.53-7.46v2.69c0,.91,1,1.57,2.37,1.57s2.36-.66,2.36-1.57V25.1l1.73-.63,10,3.64Z"/></g></g></g></svg>