<svg data-v-423bf9ae="" xmlns="http://www.w3.org/2000/svg" viewBox="0 0 457 90" class="iconLeft"><!----><!----><!----><g data-v-423bf9ae="" id="377d5422-7414-4a66-b741-e237dc9ec98b" fill="white" transform="matrix(5.628517904206723,0,0,5.628517904206723,107.01798214410334,-6.726078431214688)"><path d="M4.24 14.52C6.68 14.52 8.05 13.22 8.05 11.34C8.05 9.66 7.08 8.76 5.08 8.44L4.12 8.29C3.30 8.16 2.95 7.91 2.95 7.24C2.95 6.65 3.42 6.29 4.37 6.29C5.38 6.29 6.01 6.66 6.47 7.21L7.88 5.78C7.08 4.90 5.96 4.41 4.49 4.41C2.20 4.41 0.83 5.63 0.83 7.38C0.83 9.02 1.76 10.02 3.82 10.29L4.79 10.42C5.70 10.54 5.92 10.93 5.92 11.47C5.92 12.18 5.42 12.64 4.38 12.64C3.43 12.64 2.59 12.26 1.93 11.52L0.53 12.94C1.37 13.86 2.53 14.52 4.24 14.52ZM12.67 14.52C14.11 14.52 15.16 13.89 15.65 12.49L14.04 11.79C13.83 12.38 13.50 12.89 12.67 12.89C11.83 12.89 11.40 12.29 11.40 11.37L11.40 10.00C11.40 9.07 11.83 8.47 12.67 8.47C13.40 8.47 13.80 8.92 13.93 9.48L15.61 8.75C15.18 7.55 14.15 6.83 12.67 6.83C10.46 6.83 9.24 8.32 9.24 10.67C9.24 13.02 10.46 14.52 12.67 14.52ZM19.01 14.35L19.01 10.05C19.01 9.20 19.60 8.93 20.80 8.93L21.32 8.93L21.32 7.00L20.96 7.00C19.81 7.00 19.25 7.78 19.08 8.60L19.01 8.60L19.01 7.00L16.94 7.00L16.94 14.35ZM23.63 6.22C24.47 6.22 24.84 5.78 24.84 5.19L24.84 4.89C24.84 4.30 24.47 3.86 23.63 3.86C22.79 3.86 22.43 4.30 22.43 4.89L22.43 5.19C22.43 5.78 22.79 6.22 23.63 6.22ZM22.60 14.35L24.67 14.35L24.67 7.00L22.60 7.00ZM28.67 14.35L28.67 9.59C28.67 8.86 29.33 8.51 30.00 8.51C30.76 8.51 31.02 8.97 31.02 9.91L31.02 14.35L33.10 14.35L33.10 9.74C33.10 7.90 32.30 6.83 30.80 6.83C29.64 6.83 29.02 7.48 28.76 8.25L28.67 8.25L28.67 7.00L26.60 7.00L26.60 14.35ZM37.44 14.52C39.33 14.52 40.59 13.48 40.59 12.07C40.59 10.79 39.76 10.07 38.16 9.86L37.34 9.74C36.74 9.66 36.57 9.45 36.57 9.06C36.57 8.69 36.85 8.44 37.55 8.44C38.16 8.44 38.78 8.74 39.24 9.20L40.43 7.98C39.69 7.25 38.98 6.83 37.44 6.83C35.69 6.83 34.58 7.81 34.58 9.23C34.58 10.56 35.39 11.28 37.06 11.49L37.86 11.59C38.37 11.66 38.60 11.84 38.60 12.21C38.60 12.64 38.32 12.91 37.51 12.91C36.71 12.91 36.08 12.54 35.56 11.97L34.34 13.20C35.10 14.04 36.02 14.52 37.44 14.52ZM42 14.35L44.07 14.35L44.07 9.59C44.07 8.86 44.73 8.51 45.40 8.51C46.16 8.51 46.42 8.97 46.42 9.91L46.42 14.35L48.50 14.35L48.50 9.74C48.50 7.90 47.70 6.83 46.20 6.83C45.04 6.83 44.42 7.48 44.16 8.25L44.07 8.25L44.07 3.99L42 3.99ZM53.33 14.52C55.48 14.52 56.77 13.03 56.77 10.67C56.77 8.30 55.48 6.83 53.33 6.83C51.17 6.83 49.88 8.30 49.88 10.67C49.88 13.03 51.17 14.52 53.33 14.52ZM53.33 12.88C52.51 12.88 52.04 12.35 52.04 11.42L52.04 9.93C52.04 9.00 52.51 8.47 53.33 8.47C54.14 8.47 54.61 9.00 54.61 9.93L54.61 11.42C54.61 12.35 54.14 12.88 53.33 12.88ZM61.96 14.35L61.96 12.74L60.62 12.74L60.62 8.61L62.08 8.61L62.08 7.00L60.62 7.00L60.62 5.01L58.76 5.01L58.76 6.22C58.76 6.72 58.59 7.00 58.03 7.00L57.51 7.00L57.51 8.61L58.55 8.61L58.55 12.21C58.55 13.61 59.30 14.35 60.73 14.35Z"></path></g><!----><g data-v-423bf9ae="" id="eda7a38c-c006-471d-bd36-a546b8636bb2" transform="matrix(1.0000121224071505,0,0,1.0000121224071505,-4.000606120357524,-5.000060625278678)" stroke="none" fill="white"><path d="M64.267 54.656v-5.508l22.845-8.307C91.979 39.393 95 34.387 95 27.761c0-2.674-.48-5.404-1.429-8.115C91.244 13 86.517 7.676 81.232 5.751c-2.361-.855-4.738-.982-6.877-.365l-.05.014-30.95 11.254v.001c-3.533 1.071-6.086 4.021-7.208 8.104l-14.425 5.242v.001c-3.249.998-5.37 4.11-5.732 8.287l-7.011 2.547v.001c-2.276.717-3.687 3.002-3.687 5.996 0 4.103 2.639 8.275 6.011 9.503a5.68 5.68 0 0 0 1.924.351c.461 0 .914-.062 1.362-.192.139-.041.288-.096.446-.159l7.576-2.755c1.016.79 2.109 1.42 3.255 1.837 1.019.368 2.036.556 3.023.556.714 0 1.414-.099 2.066-.289.24-.067.489-.158.755-.27l14.448-5.253a15.695 15.695 0 0 0 3.117 1.567c1.379.5 2.756.753 4.093.753h.001c.311 0 .617-.019.922-.046v5.846L5 76.201v8.91L32.057 95l62.942-22.882v-8.911l-27.075-9.88-3.657 1.329zM75.254 8.315c1.52-.427 3.179-.32 4.93.314 4.374 1.593 8.492 6.314 10.492 12.027l.006.018-28.028 10.19c-2.25-6.422-6.744-11.604-11.814-13.672l24.414-8.877zM13.918 53.484a1.809 1.809 0 0 1-.19.071 1.8 1.8 0 0 1-.498.067c-.276 0-.573-.057-.878-.167-2.163-.787-3.991-3.819-3.991-6.623 0-1.596.618-2.809 1.568-3.086.156-.045.322-.067.496-.067.275 0 .569.057.878.169 1.498.545 2.948 2.278 3.61 4.322.254.769.383 1.543.383 2.299-.001 1.494-.533 2.651-1.378 3.015zm6.68-7.331l-2.789 1.014c-.683-2.072-1.916-3.856-3.417-5.039l7.697-2.798c.396-.103.844-.065 1.329.11 1.499.547 2.949 2.282 3.61 4.32l.014.05-6.444 2.343zm9.977 6.418a3.836 3.836 0 0 1-.46.168c-.387.112-.798.17-1.222.17-.63 0-1.296-.126-1.977-.372a8.032 8.032 0 0 1-.661-.281l.493-.179c2.303-.701 3.731-3 3.731-6.013 0-1.071-.18-2.167-.535-3.251-.965-2.976-3.063-5.371-5.478-6.252-1.11-.402-2.241-.459-3.269-.164l-1.921.698c.514-2.161 1.719-3.693 3.399-4.185a4.35 4.35 0 0 1 1.215-.169 5.76 5.76 0 0 1 1.977.376c3.043 1.104 5.859 4.423 7.174 8.456.496 1.515.747 3.029.747 4.499 0 3.202-1.201 5.632-3.213 6.499zm5.365-11.996c-1.432-4.354-4.279-7.938-7.625-9.71l16.039-5.831c.963-.267 2.024-.194 3.151.214 3.044 1.11 5.859 4.431 7.174 8.459l.016.05-18.755 6.818zm14.388 8.275c-.088-.032-.176-.072-.264-.106l2.59-.941c3.602-1.08 5.836-4.751 5.836-9.595 0-1.794-.301-3.627-.896-5.449-1.619-4.965-5.082-8.944-9.041-10.388-1.746-.633-3.509-.725-5.099-.266l-3.499 1.271c.993-1.918 2.485-3.266 4.353-3.812a6.894 6.894 0 0 1 1.921-.267c.979 0 2.004.193 3.049.574 4.375 1.592 8.492 6.31 10.489 12.021.834 2.384 1.257 4.774 1.257 7.104 0 4.841-1.863 8.537-4.992 9.889-.254.111-.496.2-.727.266-1.515.438-3.227.333-4.977-.301zm10.871 1.413v16.749c-.23.169-.883.458-1.918.458s-1.688-.289-1.919-.458V51.658l3.837-1.395zM30.525 91.179L8.067 82.97v-3.505l22.458 8.209v3.505zm61.407-21.206l-58.34 21.21v-3.507l58.34-21.21v3.507zm-59.872 15l-21.054-7.695 43.289-15.736v5.684c0 1.917 2.098 3.308 4.986 3.308s4.985-1.391 4.985-3.308v-9.308l3.655-1.329 21.067 7.688L32.06 84.973z"></path></g><!----></svg>